<?xml version="1.0" encoding="UTF-8" standalone="no"?>
<!DOCTYPE svg PUBLIC "-//W3C//DTD SVG 1.1//EN"
 "http://www.w3.org/Graphics/SVG/1.1/DTD/svg11.dtd">
<!-- Generated by graphviz version 2.40.1 (20161225.0304)
 -->
<!-- Title: finite_state_machine Pages: 1 -->
<svg width="525pt" height="526pt"
 viewBox="0.00 0.00 525.13 526.00" xmlns="http://www.w3.org/2000/svg" xmlns:xlink="http://www.w3.org/1999/xlink">
<g id="graph0" class="graph" transform="scale(.8738 .8738) rotate(0) translate(4 598)">
<title>finite_state_machine</title>
<polygon fill="#ffffff" stroke="transparent" points="-4,4 -4,-598 597,-598 597,4 -4,4"/>
<!-- S_START -->
<g id="node1" class="node">
<title>S_START</title>
<ellipse fill="none" stroke="#0000ff" cx="112" cy="-482" rx="108" ry="108"/>
<ellipse fill="none" stroke="#0000ff" cx="112" cy="-482" rx="112" ry="112"/>
<text text-anchor="middle" x="112" y="-476.1" font-family="Times,serif" font-size="23.00" fill="#000000">S_START</text>
</g>
<!-- B -->
<g id="node4" class="node">
<title>B</title>
<ellipse fill="none" stroke="#00ff00" cx="170" cy="-261" rx="43" ry="43"/>
<ellipse fill="none" stroke="#00ff00" cx="170" cy="-261" rx="47" ry="47"/>
<text text-anchor="middle" x="170" y="-257.5" font-family="Times,serif" font-size="15.00" fill="#000000">B</text>
</g>
<!-- S_START&#45;&gt;B -->
<g id="edge1" class="edge">
<title>S_START&#45;&gt;B</title>
<path fill="none" stroke="#000000" d="M140.4903,-373.4423C145.6631,-353.7321 150.8575,-333.9396 155.415,-316.574"/>
<polygon fill="#000000" stroke="#000000" points="158.8666,-317.2099 158.0197,-306.6489 152.0958,-315.4329 158.8666,-317.2099"/>
</g>
<!-- ERR -->
<g id="node2" class="node">
<title>ERR</title>
<ellipse fill="none" stroke="#ff0000" cx="86" cy="-76" rx="72" ry="72"/>
<ellipse fill="none" stroke="#ff0000" cx="86" cy="-76" rx="76" ry="76"/>
<text text-anchor="middle" x="86" y="-69.7" font-family="Times,serif" font-size="26.00" fill="#000000">ERR</text>
</g>
<!-- A -->
<g id="node3" class="node">
<title>A</title>
<ellipse fill="none" stroke="#00ff00" cx="289" cy="-482" rx="43" ry="43"/>
<ellipse fill="none" stroke="#00ff00" cx="289" cy="-482" rx="47" ry="47"/>
<text text-anchor="middle" x="289" y="-478.5" font-family="Times,serif" font-size="15.00" fill="#000000">A</text>
</g>
<!-- A&#45;&gt;B -->
<g id="edge2" class="edge">
<title>A&#45;&gt;B</title>
<path fill="none" stroke="#000000" d="M268.4572,-439.4084C258.1169,-418.3646 245.2116,-392.6831 233,-370 222.4044,-350.3186 210.2206,-328.9674 199.4083,-310.4213"/>
<polygon fill="#000000" stroke="#000000" points="202.2952,-308.4247 194.2236,-301.5617 196.2537,-311.9603 202.2952,-308.4247"/>
<text text-anchor="middle" x="241.5" y="-332.8" font-family="Times,serif" font-size="24.00" fill="#000000">ide</text>
</g>
<!-- B&#45;&gt;ERR -->
<g id="edge4" class="edge">
<title>B&#45;&gt;ERR</title>
<path fill="none" stroke="#000000" d="M150.5176,-218.0923C141.9513,-199.226 131.6106,-176.4519 121.7416,-154.7165"/>
<polygon fill="#000000" stroke="#000000" points="124.8686,-153.1377 117.5474,-145.4794 118.4949,-156.0317 124.8686,-153.1377"/>
</g>
<!-- C -->
<g id="node5" class="node">
<title>C</title>
<ellipse fill="none" stroke="#00ff00" cx="227" cy="-76" rx="43" ry="43"/>
<ellipse fill="none" stroke="#00ff00" cx="227" cy="-76" rx="47" ry="47"/>
<text text-anchor="middle" x="227" y="-72.5" font-family="Times,serif" font-size="15.00" fill="#000000">C</text>
</g>
<!-- B&#45;&gt;C -->
<g id="edge3" class="edge">
<title>B&#45;&gt;C</title>
<path fill="none" stroke="#000000" d="M183.9438,-215.7439C191.8399,-190.1161 201.7738,-157.8745 210.1095,-130.82"/>
<polygon fill="#000000" stroke="#000000" points="213.5018,-131.6964 213.1015,-121.1091 206.8121,-129.6352 213.5018,-131.6964"/>
<text text-anchor="middle" x="229.5" y="-176.8" font-family="Times,serif" font-size="24.00" fill="#000000">neide</text>
</g>
<!-- B_V1 -->
<g id="node6" class="node">
<title>B_V1</title>
<ellipse fill="none" stroke="#000000" cx="557" cy="-482" rx="36" ry="36"/>
<text text-anchor="middle" x="557" y="-478.3" font-family="Times,serif" font-size="14.00" fill="#000000">B_V1</text>
</g>
<!-- B_V2 -->
<g id="node7" class="node">
<title>B_V2</title>
<ellipse fill="none" stroke="#000000" cx="557" cy="-261" rx="36" ry="36"/>
<text text-anchor="middle" x="557" y="-257.3" font-family="Times,serif" font-size="14.00" fill="#000000">B_V2</text>
</g>
<!-- B_V1&#45;&gt;B_V2 -->
<g id="edge5" class="edge">
<title>B_V1&#45;&gt;B_V2</title>
<path fill="none" stroke="#000000" d="M557,-445.5063C557,-407.6446 557,-348.3295 557,-307.2167"/>
<polygon fill="#000000" stroke="#000000" points="560.5001,-307.1805 557,-297.1806 553.5001,-307.1806 560.5001,-307.1805"/>
</g>
</g>
</svg>
